<?xml version="1.0" encoding="iso-8859-1"?>
<!-- Uploaded to: SVG Repo, www.svgrepo.com, Generator: SVG Repo Mixer Tools -->
<svg height="800px" width="800px" version="1.1" id="Layer_1" xmlns="http://www.w3.org/2000/svg" xmlns:xlink="http://www.w3.org/1999/xlink" 
	 viewBox="0 0 503.607 503.607" xml:space="preserve">
<g transform="translate(0 1)">
	<path style="fill:#FFE100;" d="M325.666,66.148v41.967c0,5.036-3.357,8.393-6.715,8.393H167.869c-4.197,0-7.554-4.197-7.554-8.393
		V66.148h-31.056c-15.948,0-28.538,15.108-28.538,33.574v360.918c0,18.466,12.59,33.574,28.538,33.574h228.302
		c15.948,0,28.538-15.108,28.538-33.574V99.721c0-18.466-12.59-33.574-28.538-33.574H325.666z"/>
	<path style="fill:#FFFFFF;" d="M100.721,460.639V99.721c0-18.466,12.59-33.574,28.538-33.574h-20.144
		c-18.466,0-33.574,15.108-33.574,33.574v360.918c0,18.466,15.108,33.574,33.574,33.574h20.144
		C113.311,494.213,100.721,479.944,100.721,460.639"/>
	<path style="fill:#FFA800;" d="M377.705,66.148h-20.144c15.948,0,28.538,15.108,28.538,33.574v360.918
		c0,18.466-12.59,33.574-28.538,33.574h20.144c18.466,0,33.574-15.108,33.574-33.574V99.721
		C411.279,81.256,396.17,66.148,377.705,66.148"/>
	<path style="fill:#FFE100;" d="M402.885,66.148h-20.144c15.948,0,28.538,15.108,28.538,33.574v360.918
		c0,18.466-12.59,33.574-28.538,33.574h20.144c18.466,0,33.574-15.108,33.574-33.574V99.721
		C436.459,81.256,421.351,66.148,402.885,66.148"/>
	<path style="fill:#FFA800;" d="M285.377,40.967V24.18c0-9.233-7.554-16.787-16.787-16.787h-50.361
		c-9.233,0-16.787,7.554-16.787,16.787v16.787h-33.574c-5.036,0-8.393,3.357-8.393,8.393v58.754c0,5.036,4.197,8.393,8.393,8.393
		h151.082c5.036,0,8.393-4.197,8.393-8.393V49.361c0-5.036-3.357-8.393-8.393-8.393H285.377z"/>
	<path style="fill:#FECC00;" d="M285.377,40.967V24.18c0-9.233-7.554-16.787-16.787-16.787h-50.361
		c-9.233,0-16.787,7.554-16.787,16.787v16.787h-33.574c-5.036,0-8.393,3.357-8.393,8.393v58.754c0,5.036,4.197,8.393,8.393,8.393
		H293.77c5.036,0,8.393-4.197,8.393-8.393V49.361c0-5.036-3.357-8.393-8.393-8.393H285.377z"/>
	<path d="M377.705,502.607h-268.59c-23.502,0-41.967-18.466-41.967-41.967V234.016c0-5.036,3.357-8.393,8.393-8.393
		s8.393,3.357,8.393,8.393v226.623c0,14.269,10.911,25.18,25.18,25.18h268.59c14.269,0,25.18-10.911,25.18-25.18V99.721
		c0-14.269-10.911-25.18-25.18-25.18h-41.967v33.574c0,9.233-7.554,16.787-16.787,16.787H167.869
		c-9.233,0-16.787-7.554-16.787-16.787V74.541h-41.967c-14.269,0-25.18,10.911-25.18,25.18v67.148c0,5.036-3.357,8.393-8.393,8.393
		s-8.393-3.357-8.393-8.393V99.721c0-23.502,18.466-41.967,41.967-41.967h50.361c5.036,0,8.393,3.357,8.393,8.393v41.967h151.082
		V66.148c0-5.036,3.357-8.393,8.393-8.393h50.361c23.502,0,41.967,18.466,41.967,41.967v360.918
		C419.672,484.141,401.207,502.607,377.705,502.607z"/>
	<path d="M83.934,200.443c0-5.036-3.357-8.393-8.393-8.393s-8.393,3.357-8.393,8.393s3.357,8.393,8.393,8.393
		S83.934,205.479,83.934,200.443"/>
	<g>
		<path style="fill:#00DA6C;" d="M251.803,301.164h-16.787c-30.216-12.59-50.361-41.128-50.361-72.184v-28.538h117.508v28.538
			C302.164,260.875,282.02,289.413,251.803,301.164"/>
		<path style="fill:#00DA6C;" d="M235.016,301.164h16.787c30.216,12.59,50.361,41.128,50.361,72.184v28.538H184.656v-28.538
			C184.656,342.292,204.8,313.754,235.016,301.164"/>
	</g>
	<path d="M167.869,124.902c-9.233,0-16.787-7.554-16.787-16.787V49.361c0-9.233,7.554-16.787,16.787-16.787h25.18V24.18
		c0-13.43,10.911-25.18,25.18-25.18h50.361c14.269,0,25.18,10.911,25.18,25.18v8.393h25.18c9.233,0,16.787,7.554,16.787,16.787
		v58.754c0,9.233-7.554,16.787-16.787,16.787H167.869z M167.869,49.361v58.754h151.082V49.361h-33.574
		c-5.036,0-8.393-3.357-8.393-8.393V24.18c0-4.197-3.357-8.393-8.393-8.393h-50.361c-5.036,0-8.393,3.357-8.393,8.393v16.787
		c0,5.036-3.357,8.393-8.393,8.393H167.869z"/>
	<path d="M253.482,309.557h-20.144l-1.679-0.839c-33.574-13.429-55.397-45.325-55.397-80.577v-36.092h134.295v36.931
		c0,35.252-21.823,67.148-55.397,80.577H253.482z M236.695,292.77h13.43c26.859-10.911,43.646-36.092,43.646-63.79v-20.144H193.049
		v20.144C193.049,256.679,209.836,281.859,236.695,292.77z"/>
	<path d="M184.656,208.836h-25.18c-5.036,0-8.393-3.357-8.393-8.393s3.357-8.393,8.393-8.393h25.18c5.036,0,8.393,3.357,8.393,8.393
		S189.692,208.836,184.656,208.836z"/>
	<path d="M327.344,208.836h-25.18c-5.036,0-8.393-3.357-8.393-8.393s3.357-8.393,8.393-8.393h25.18c5.036,0,8.393,3.357,8.393,8.393
		S332.38,208.836,327.344,208.836z"/>
	<path d="M310.557,410.279H176.262v-36.931c0-35.252,21.823-67.148,55.397-80.577l1.679-0.839h20.144l1.679,0.839
		c33.574,13.43,55.397,45.325,55.397,80.577V410.279L310.557,410.279z M193.049,393.492H293.77v-20.144
		c0-27.698-16.787-52.879-43.646-63.79h-13.43c-26.859,11.751-43.646,36.092-43.646,64.629V393.492z"/>
	<path d="M327.344,410.279h-25.18c-5.036,0-8.393-3.357-8.393-8.393s3.357-8.393,8.393-8.393h25.18c5.036,0,8.393,3.357,8.393,8.393
		S332.38,410.279,327.344,410.279z"/>
	<path d="M184.656,410.279h-25.18c-5.036,0-8.393-3.357-8.393-8.393s3.357-8.393,8.393-8.393h25.18c5.036,0,8.393,3.357,8.393,8.393
		S189.692,410.279,184.656,410.279z"/>
</g>
</svg>